PathFileType	4	(X/Y/Z)	C:/Users/beibeiliu/ov580/test_trc/User3\sequence.30_training_dense_right.trc
DataRate	CameraRate	NumFrames	NumMarkers	Units	OrigDataRate	OrigDataStartFrame	OrigNumFrames
120	120	8	19	mm	120	25	99
Frame#	Time	ThumbCMC			ThumbMCP			ThumbIP			ThumbTip			IndexMCP			IndexPIP			IndexTip			MiddleMCP			MiddlePIP			MiddleTip			RingMCP			RingPIP			RingTip			PinkyMCP			PinkyPIP			PinkyTip			BackHand1			BackHand2			BackHand3	
		X0	Y0	Z0	X1	Y1	Z1	X2	Y2	Z2	X3	Y3	Z3	X4	Y4	Z4	X5	Y5	Z5	X6	Y6	Z6	X7	Y7	Z7	X8	Y8	Z8	X9	Y9	Z9	X10	Y10	Z10	X11	Y11	Z11	X12	Y12	Z12	X13	Y13	Z13	X14	Y14	Z14	X15	Y15	Z15	X16	Y16	Z16	X17	Y17	Z17	X18	Y18	Z18	
24	0.2	74.0883	-31.074	14.6815	47.718	-50.1502	8.00824	20.8806	-60.0781	-0.976111	1.04018	-72.0323	-10.9348	63.4254	-64.7242	-52.0544	45.0429	-75.3449	-65.4625	27.3439	-89.4297	-76.6902	79.4402	-85.4026	-48.7828	57.8426	-97.9153	-66.0337	34.384	-115.229	-82.1008	85.7081	-98.5866	-40.1713	72.5265	-115.235	-51.489	55.9484	-129.171	-61.9204	96.1059	-111.8	-15.1719	80.3836	-128.742	-23.7473	70.529	-144.497	-26.8457	121.172	-67.6756	-7.2773	134.652	-54.0723	21.7562	108.143	-32.9672	0.0504277	
25	0.208333	82.6572	-16.9893	10.9143	52.8192	-28.6483	5.07606	29.5269	-35.138	-4.00722	8.3639	-42.6634	-13.8446	69.7444	-51.1034	-51.1969	47.3998	-59.4621	-65.051	26.4776	-69.2533	-76.193	73.7075	-77.7725	-51.1139	54.2016	-86.3418	-63.2835	23.697	-95.4448	-80.3325	79.4742	-93.3804	-34.9672	59.8275	-104.708	-49.7861	41.8984	-111.976	-58.3148	82.6735	-107.38	-10.3915	66.3277	-117.804	-14.1333	46.4977	-130.24	-20.0062	121.33	-70.3011	-0.204839	135.285	-59.1897	21.6475	119.473	-34.3738	-1.22742	
26	0.216667	96.9387	-9.96802	10.2865	65.7712	-12.0403	2.21375	39.0074	-8.65256	-9.87712	17.5587	-9.23381	-19.7226	75.9998	-38.4015	-52.1318	53.7909	-42.6087	-65.412	29.9438	-40.6066	-79.3374	74.877	-63.2673	-49.4692	47.6924	-68.6063	-64.8868	22.8625	-71.8025	-77.9702	71.3074	-78.5942	-37.2454	50.5411	-84.0281	-50.1686	28.1263	-92.7807	-59.9781	67.8496	-94.7122	-7.67826	48.6892	-96.5517	-15.8017	28.8727	-103.269	-19.3715	114.72	-67.456	-0.849258	130.637	-62.7789	24.8544	128.077	-34.6299	-0.409914	
27	0.225	111.049	-2.95573	9.66051	78.358	2.05474	-1.66833	50.3682	5.1044	-20.3898	33.5171	11.2749	-27.1835	82.1941	-34.4446	-54.8633	63.5773	-28.7756	-69.3972	41.8346	-23.8493	-85.262	75.5297	-55.7867	-50.9898	52.0889	-55.665	-67.3581	26.3084	-48.8392	-86.9814	70.4765	-71.0013	-32.2449	49.9891	-69.2944	-50.6058	25.1321	-73.6961	-62.192	61.0161	-80.8663	-7.00122	40.9138	-83.3698	-10.6456	18.711	-82.0656	-23.5318	110.192	-68.6158	1.092	130.142	-62.1205	28.5928	129.9	-39.516	-1.76822	
28	0.233333	119.576	-9.09054	7.36233	89.7547	1.21606	-9.50872	68.8212	8.41832	-24.4648	51.8133	17.1142	-37.3387	93.7043	-34.0635	-59.7904	78.3987	-26.5049	-74.5557	56.7939	-18.3891	-92.5862	81.1682	-55.6968	-53.6714	63.6689	-49.8774	-71.7206	39.6147	-43.1128	-93.4408	70.3297	-66.7719	-37.0986	52.8046	-66.3961	-53.0704	32.8538	-62.6355	-67.9914	57.9403	-72.8294	-9.37282	38.1113	-71.7905	-18.0407	18.3261	-71.7182	-24.6429	109.903	-70.1799	4.78716	123.512	-68.1192	33.4903	134.12	-45.5832	-0.257524	
29	0.241667	128.939	-17.9841	10.8517	102.665	-3.98189	-8.2307	83.3924	7.58456	-31.8732	67.4432	11.8491	-47.0595	102.055	-43.0705	-59.1187	91.6087	-34.1762	-76.2711	76.0537	-25.3824	-93.857	87.4676	-62.3749	-54.6855	70.9496	-54.9824	-75.1623	54.3212	-43.7415	-100.952	75.8488	-70.0673	-35.6287	59.5754	-66.9253	-58.0134	42.1565	-60.926	-76.5127	61.2358	-71.7773	-10.9176	39.6428	-68.9893	-22.2999	21.6211	-67.0941	-30.2391	108.168	-76.3105	6.33091	119.945	-75.6318	36.8886	139.301	-53.8352	7.15498	
30	0.25	135.746	-25.0385	10.6512	112.747	-10.5925	-10.7343	96.2392	-0.687902	-31.1174	83.1835	5.60794	-46.3506	117.938	-49.4902	-56.8197	102.035	-42.2577	-76.6894	91.5633	-33.9938	-95.0042	96.7314	-67.937	-52.7157	82.1896	-60.9998	-76.9076	66.0733	-50.8282	-100.486	82.1046	-75.4843	-37.9671	70.1867	-71.2048	-59.6643	48.822	-64.7786	-79.3669	66.5823	-74.2174	-14.4544	49.0565	-69.607	-28.3502	31.2147	-66.8266	-37.9707	109.832	-81.729	10.4499	119.736	-79.2001	37.3295	142.58	-63.7547	11.9828	
31	0.258333	140.258	-33.4891	16.1156	118.288	-18.6179	-10.8295	105.25	-8.80056	-31.8398	93.5735	0.327098	-50.319	123.438	-61.5494	-50.6378	113.384	-50.6124	-76.0822	100.687	-42.7588	-95.4636	102.622	-76.7728	-51.5877	90.0454	-69.5341	-74.0215	77.5574	-56.7636	-102.811	88.3199	-81.079	-37.8936	74.635	-77.9663	-58.9928	63.0346	-70.0487	-78.8899	68.6668	-80.1481	-12.3354	54.531	-74.9118	-27.7691	37.9937	-69.5869	-43.5113	112.674	-87.4611	12.1981	123.005	-86.353	42.5994	141.708	-73.4436	17.2668	
